<?xml version="1.0" encoding="UTF-8"?>
<svg width="36px" height="36px" viewBox="0 0 36 36" version="1.1" xmlns="http://www.w3.org/2000/svg" xmlns:xlink="http://www.w3.org/1999/xlink">
    <title>apple-icon</title>
    <g id="apple-icon" stroke="none" stroke-width="1" fill="none" fill-rule="evenodd">
        <path d="M27.9841942,34.5502887 C26.0547642,36.4453306 23.9259836,36.1499058 21.8968783,35.2564259 C19.7396191,34.3449324 17.7674711,34.2872885 15.4891775,35.2564259 C12.6519899,36.4957689 11.1461802,36.1354948 9.43746001,34.5502887 C-0.209689614,24.4986406 1.21424391,9.18699021 12.178532,8.61055161 C14.8377279,8.75466126 16.699521,10.0984837 18.2658479,10.2101687 C20.5939792,9.73100414 22.8224351,8.35835972 25.3143188,8.53849678 C28.308139,8.78348319 30.5472745,9.97959328 32.0424047,12.1304298 C25.8838922,15.8772807 27.3434241,24.0915308 33,26.3972852 C31.8679728,29.4055741 30.4155607,32.3778357 27.9806343,34.5755078 L27.9841942,34.5502887 Z M18.0522578,8.50246937 C17.7639113,4.03507021 21.3415443,0.360274126 25.4567122,0 C26.0227257,5.15192 20.8289282,9.00685314 18.0522578,8.50246937 Z" id="Shape" fill="#FFFFFF" fill-rule="nonzero"></path>
    </g>
</svg>