<?xml version="1.0" encoding="UTF-8"?>
<svg width="64px" height="30px" viewBox="0 0 64 30" version="1.1" xmlns="http://www.w3.org/2000/svg" xmlns:xlink="http://www.w3.org/1999/xlink">
    <title>cnet-logo</title>
    <g id="cnet-logo" stroke="none" stroke-width="1" fill="none" fill-rule="evenodd">
        <path d="M35.5507728,20.8412571 C36.0294191,20.8412571 36.9649549,20.8412571 36.9649549,20.8412571 L36.9649549,22.5382756 C36.9649549,22.5382756 35.1373965,22.5382756 34.7675335,22.5382756 C34.0495641,22.5382756 33.3533514,22.1901692 33.5491612,22.2771958 C32.5265988,21.8203062 32.1349791,20.7107172 32.0479525,19.4705882 L32.0479525,5.26349718 L34.3541572,5.26349718 L34.3541572,8.80983078 L34.3541572,8.83158743 L36.5515786,8.83158743 L36.5515786,10.4850927 L34.3541572,10.4850927 L34.3541572,10.5068493 L34.3541572,19.6446414 C34.3976705,20.5584206 34.9415867,20.8412571 35.5507728,20.8412571 Z M22.6490807,19.5358582 L22.6490807,11.7469782 C22.5838107,7.35213537 30.3291773,7.33037873 30.1986375,11.8557615 L30.1986375,15.5979049 C30.1986375,15.837228 30.0028276,16.0112812 29.7852612,16.0112812 L24.9552853,16.0112812 L24.9552853,19.6446414 C24.977042,21.3634166 27.9359461,21.34166 27.9359461,19.6446414 L27.9359461,17.9041096 L30.2203941,17.9041096 L30.2203941,19.5358582 C30.3291773,24.0394843 22.5838107,23.930701 22.6490807,19.5358582 Z M27.8924328,14.292506 L27.8924328,11.7469782 C27.8924328,10.0499597 24.9552853,10.0499597 24.911772,11.7469782 L24.911772,14.292506 L27.8924328,14.292506 Z M18.1889678,11.5294118 C18.1889678,9.94117647 15.4911435,9.98468977 15.4476302,11.5946817 L15.4476302,22.5382756 L12.1188631,22.5382756 L12.1188631,20.8412571 L13.1849388,20.8412571 L13.1849388,10.528606 L11.9230533,10.528606 L11.9230533,8.85334408 L15.1430371,8.85334408 L15.1430371,10.093473 C15.1430371,10.093473 15.5346568,9.50604351 16.5572192,8.94037067 C17.8626181,8.22240129 19.1462603,8.94037067 18.9504505,8.85334408 C19.973013,9.31023368 20.3646326,10.4198227 20.4516592,11.6599517 L20.4516592,20.8630137 L21.9093546,20.8630137 L21.9093546,22.5382756 L18.2107245,22.5382756 L18.1889678,11.5294118 Z M9.07293238,2 L10.7264376,2 L10.7264376,29 L9.07293238,29 L9.07293238,2 Z M0.000410224967,19.5358582 L0.000410224967,11.7469782 C-0.0648597186,7.35213537 7.68050692,7.33037873 7.54996703,11.8557615 L7.54996703,13.2046737 L5.28727566,13.2046737 L5.26551901,11.7469782 C5.26551901,10.0717164 2.35012819,10.1152297 2.28485825,11.8122482 L2.28485825,19.6446414 C2.3066149,21.3634166 5.26551901,21.34166 5.26551901,19.6446414 L5.26551901,17.9041096 L7.54996703,17.9041096 L7.54996703,19.5358582 C7.68050692,24.0394843 -0.0648597186,23.930701 0.000410224967,19.5358582 Z" id="Shape" fill="#DC0C03" fill-rule="nonzero"></path>
    </g>
</svg>