<?xml version="1.0" encoding="UTF-8"?>
<svg width="36px" height="36px" viewBox="0 0 36 36" version="1.1" xmlns="http://www.w3.org/2000/svg" xmlns:xlink="http://www.w3.org/1999/xlink">
    <title>facebook-icon</title>
    <g id="facebook-icon" stroke="none" stroke-width="1" fill="none" fill-rule="evenodd">
        <path d="M34.0131364,0 C35.1102951,0 36,0.889698196 36,1.98684876 L36,34.0130164 C36,35.1105716 35.1102951,36 34.0131364,36 L1.98686365,36 C0.889300206,36 3.23296945e-13,35.1105716 3.23296945e-13,34.0130164 L3.23296945e-13,1.98684876 C3.23296945e-13,0.889698196 0.889300206,0 1.98686365,0 L19.228,0 L19.2287801,13.3282377 L14.5373269,13.3282377 L14.5373269,18.9123063 L19.2287801,18.9123063 L19.2287801,23.030349 C19.2287801,27.8093857 22.0685248,30.4116338 26.2166591,30.4116338 C28.2035228,30.4116338 29.9113083,30.2595553 30.4090358,30.1916259 L30.4090358,30.1916259 L30.4090358,25.1972948 L27.5319278,25.1959085 C25.2761024,25.1959085 24.8393431,24.0942056 24.8393431,22.4774874 L24.8393431,22.4774874 L24.8393431,18.9123063 L30.2195217,18.9123063 L29.5189263,13.3282377 L24.8393431,13.3282377 L24.839,0 L34.0131364,0 Z" id="Combined-Shape" fill="#FFFFFF" fill-rule="nonzero" transform="translate(18.000000, 18.000000) scale(1, -1) translate(-18.000000, -18.000000) "></path>
    </g>
</svg>