<?xml version="1.0" encoding="UTF-8"?>
<svg width="36px" height="36px" viewBox="0 0 36 36" version="1.1" xmlns="http://www.w3.org/2000/svg" xmlns:xlink="http://www.w3.org/1999/xlink">
    <title>google-icon</title>
    <g id="google-icon" stroke="none" stroke-width="1" fill="none" fill-rule="evenodd">
        <path d="M34.0131364,0 C35.1102951,0 36,0.889698196 36,1.98684876 L36,34.0130164 C36,35.1105716 35.1102951,36 34.0131364,36 L1.98686365,36 C0.889300206,36 3.23296945e-13,35.1105716 3.23296945e-13,34.0130164 L3.23296945e-13,1.98684876 C3.23296945e-13,0.889698196 0.889300206,0 1.98686365,0 L19.228,0 L19.2287801,13.3282377 L14.5373269,13.3282377 L14.5373269,18.9123063 L19.2287801,18.9123063 L19.2287801,23.030349 C19.2287801,27.8093857 22.0685248,30.4116338 26.2166591,30.4116338 C28.2035228,30.4116338 29.9113083,30.2595553 30.4090358,30.1916259 L30.4090358,30.1916259 L30.4090358,25.1972948 L27.5319278,25.1959085 C25.2761024,25.1959085 24.8393431,24.0942056 24.8393431,22.4774874 L24.8393431,22.4774874 L24.8393431,18.9123063 L30.2195217,18.9123063 L29.5189263,13.3282377 L24.8393431,13.3282377 L24.839,0 L34.0131364,0 Z" id="Combined-Shape" fill="#FFFFFF" fill-rule="nonzero" transform="translate(18.000000, 18.000000) scale(1, -1) translate(-18.000000, -18.000000) "></path>
        <g id="Google__G__Logo" transform="translate(1.000000, 0.000000)" fill-rule="nonzero">
            <path d="M34,17.89375 C34,16.7416667 33.8986803,15.6479167 33.7249894,14.5833333 L17.3690932,14.5833333 L17.3690932,21.1604167 L26.7339293,21.1604167 C26.3141762,23.31875 25.0838655,25.1416667 23.2601107,26.38125 L23.2601107,30.75625 L28.847169,30.75625 C32.1183482,27.7083333 34,23.2166667 34,17.89375 Z" id="Path" fill="#4285F4"></path>
            <path d="M17.3690932,35 C22.0587484,35 25.9812686,33.425 28.847169,30.75625 L23.2601107,26.38125 C21.6968923,27.43125 19.7139208,28.0729167 17.3690932,28.0729167 C12.8386547,28.0729167 9.00297999,24.9958333 7.62792678,20.8395833 L1.86717752,20.8395833 L1.86717752,25.3458333 C4.71860366,31.0625 10.5806726,35 17.3690932,35 Z" id="Path" fill="#34A853"></path>
            <path d="M7.62792678,20.8395833 C7.26607067,19.7895833 7.07790549,18.6666667 7.07790549,17.5 C7.07790549,16.3333333 7.28054491,15.2104167 7.62792678,14.1604167 L7.62792678,9.65416667 L1.86717752,9.65416667 C0.680289485,12.0166667 -5.14228459e-15,14.6708333 -5.14228459e-15,17.5 C-5.14228459e-15,20.3291667 0.680289485,22.9833333 1.86717752,25.3458333 L7.62792678,20.8395833 Z" id="Path" fill="#FBBC05"></path>
            <path d="M17.3690932,6.92708333 C19.9310345,6.92708333 22.2179651,7.81666667 24.0272456,9.55208333 L28.9774372,4.56458333 C25.9812686,1.73541667 22.0587484,1.03620816e-14 17.3690932,1.03620816e-14 C10.5806726,1.03620816e-14 4.71860366,3.9375 1.86717752,9.65416667 L7.62792678,14.1604167 C9.00297999,10.0041667 12.8386547,6.92708333 17.3690932,6.92708333 Z" id="Path" fill="#EA4335"></path>
        </g>
    </g>
</svg>