<?xml version="1.0" encoding="UTF-8"?>
<svg width="48px" height="48px" viewBox="0 0 48 48" version="1.1" xmlns="http://www.w3.org/2000/svg" xmlns:xlink="http://www.w3.org/1999/xlink">
    <!-- Generator: Sketch 62 (91390) - https://sketch.com -->
    <title>ino_logo</title>
    <desc>Created with Sketch.</desc>
    <g id="Page-1" stroke="none" stroke-width="1" fill="none" fill-rule="evenodd">
        <g id="ino_logo" fill="#007BC7" fill-rule="nonzero">
            <path d="M24,0 C37.254834,0 48,10.745166 48,24 C48,37.254834 37.254834,48 24,48 C10.745166,48 0,37.254834 0,24 C0,10.745166 10.745166,0 24,0 Z M18.6735273,20.6534314 C13.8835567,20.6534314 10,24.5359946 10,29.325831 C10,34.1165521 13.8835567,38 18.6735273,38 C23.4621708,38 27.3457275,34.1165521 27.3457275,29.325831 C27.3457275,24.5359946 23.4621708,20.6534314 18.6735273,20.6534314 Z M21.119385,24.3630332 C22.4907287,24.3630332 23.6028441,25.4768869 23.6028441,26.846865 C23.6028441,28.2208244 22.4907287,29.3324663 21.119385,29.3324663 C19.7462719,29.3324663 18.6332717,28.2208244 18.6332717,26.846865 C18.6332717,25.4768869 19.7462719,24.3630332 21.119385,24.3630332 Z M18.6733504,14.5247587 L18.6733504,17.6495652 C25.1107028,17.6495652 30.3505626,22.8879511 30.3505626,29.3260079 L30.3505626,29.3260079 L33.4763414,29.3260079 C33.4763414,21.1649724 26.8359416,14.5247587 18.6733504,14.5247587 L18.6733504,14.5247587 Z M18.6733946,8 L18.6733946,11.1248065 C23.5345866,11.1248065 28.1051422,13.0185347 31.5441182,16.4565296 C34.9826518,19.8945245 36.8737789,24.4662792 36.8737789,29.3260079 L36.8737789,29.3260079 L40,29.3260079 C40,23.6302253 37.7810775,18.2746149 33.7528662,14.2456317 C29.7242125,10.2179756 24.3702215,8 18.6733946,8 L18.6733946,8 Z" id="Combined-Shape"></path>
        </g>
    </g>
</svg>