<?xml version="1.0" encoding="UTF-8"?>
<svg width="14px" height="12px" viewBox="0 0 14 12" version="1.1" xmlns="http://www.w3.org/2000/svg" xmlns:xlink="http://www.w3.org/1999/xlink">
    <title>quotes</title>
    <g id="quotes" stroke="none" stroke-width="1" fill="none" fill-rule="evenodd">
        <g transform="translate(-0.000000, -0.000000)" fill="#000000" fill-rule="nonzero" id="“">
            <path d="M2.904,11.22 C3.784,11.22 4.488,10.9413333 5.016,10.384 C5.544,9.8266667 5.808,9.152 5.808,8.36 L5.808,8.36 L5.808,8.096 C5.808,7.36266667 5.57333333,6.71733333 5.104,6.16 C4.63466667,5.60266667 3.97466667,5.324 3.124,5.324 L3.124,5.324 L3.036,5.324 C3.24133333,4.47333333 3.696,3.586 4.4,2.662 C5.104,1.738 5.95466667,0.85066667 6.952,0 L6.952,0 L4.576,0 C3.93066667,0.44 3.32933333,0.97533333 2.772,1.606 C2.21466667,2.23666667 1.73066667,2.89666667 1.32,3.586 C0.909333333,4.27533333 0.586666667,4.97933333 0.352,5.698 C0.117333333,6.41666667 0,7.09866667 0,7.744 L0,7.744 L0,8.184 C0,9.03466667 0.256666667,9.7533333 0.77,10.34 C1.28333333,10.9266667 1.99466667,11.22 2.904,11.22 Z M9.616,11.22 C10.496,11.22 11.2,10.9413333 11.728,10.384 C12.256,9.8266667 12.52,9.152 12.52,8.36 L12.52,8.36 L12.52,8.096 C12.52,7.36266667 12.2853333,6.71733333 11.816,6.16 C11.3466667,5.60266667 10.6866667,5.324 9.836,5.324 L9.836,5.324 L9.748,5.324 C9.9533333,4.47333333 10.408,3.586 11.112,2.662 C11.816,1.738 12.6666667,0.85066667 13.664,0 L13.664,0 L11.288,0 C10.6426667,0.44 10.0413333,0.97533333 9.484,1.606 C8.92666667,2.23666667 8.44266667,2.89666667 8.032,3.586 C7.62133333,4.27533333 7.29866667,4.97933333 7.064,5.698 C6.82933333,6.41666667 6.712,7.09866667 6.712,7.744 L6.712,7.744 L6.712,8.184 C6.712,9.03466667 6.96866667,9.7533333 7.482,10.34 C7.99533333,10.9266667 8.70666667,11.22 9.616,11.22 Z"></path>
        </g>
    </g>
</svg>