<?xml version="1.0" encoding="UTF-8"?>
<svg width="64px" height="30px" viewBox="0 0 64 30" version="1.1" xmlns="http://www.w3.org/2000/svg" xmlns:xlink="http://www.w3.org/1999/xlink">
    <title>wired-logo</title>
    <g id="wired-logo" stroke="none" stroke-width="1" fill="none" fill-rule="evenodd">
        <path d="M53.995992,10.987976 L53.995992,19.8376754 L58.3567134,19.8376754 C59.5751503,19.8376754 60.2805611,19.6452906 60.7935872,19.1963928 C61.4348697,18.6192385 61.755511,17.5931864 61.755511,15.4128257 C61.755511,13.2324649 61.4348697,12.2064128 60.7935872,11.6292585 C60.2805611,11.1803607 59.5751503,10.987976 58.3567134,10.987976 L53.995992,10.987976 Z M59.9599198,15.4128257 C59.9599198,17.3366733 59.8316633,17.7855711 59.4468938,18.0420842 C59.1903808,18.2344689 58.8697395,18.2985972 58.2284569,18.2985972 L55.7915832,18.2985972 L55.7915832,12.4629259 L58.2284569,12.4629259 C58.8697395,12.4629259 59.1903808,12.4629259 59.4468938,12.7194389 C59.8316633,13.0400802 59.9599198,13.488978 59.9599198,15.4128257 Z M64,21.7938437 L51.2061563,21.7938437 L51.2061563,9 L64,9 L64,21.7938437 Z M40.7537635,12.4629259 L40.7537635,10.987976 L48.3208978,10.987976 L48.3208978,13.8096192 L46.7171784,13.8096192 L46.7171784,12.4629259 L43.639022,12.4629259 L43.639022,14.5791583 L46.0758958,14.5791583 L46.0758958,15.98998 L43.639022,15.98998 L43.639022,18.3627255 L46.7818196,18.3627255 L46.7818196,16.8236473 L48.384513,16.8236473 L48.384513,19.8376754 L40.7542766,19.8376754 L40.7542766,18.3627255 L41.9722004,18.3627255 L41.9722004,12.4629259 L40.7537635,12.4629259 Z M33.8920401,17.5290581 C33.8920401,18.490982 33.9556553,19.1963928 34.0839118,19.7735471 L35.8158878,19.7735471 C35.7512465,19.3246493 35.6876313,18.490982 35.6876313,17.4008016 C35.62299,16.1182365 35.2382204,15.9258517 34.3404248,15.7334669 C35.366477,15.5410822 35.8158878,15.0921844 35.8158878,13.488978 C35.8158878,12.2064128 35.62299,11.6933868 35.2382204,11.3727455 C34.9817074,11.1162325 34.5333226,10.987976 33.8273988,10.987976 L28.4406253,10.987976 L28.4406253,19.8376754 L30.2362164,19.8376754 L30.2362164,16.3747495 L32.7377315,16.3747495 C33.2507575,16.3747495 33.4426293,16.4388778 33.6355271,16.5671343 C33.8284248,16.6953908 33.8920401,16.8877756 33.8920401,17.5290581 L33.8920401,17.5290581 Z M30.2362164,14.9639279 L30.2362164,12.5270541 L33.122501,12.5270541 C33.5072705,12.5270541 33.6355271,12.5911824 33.6991423,12.6553106 C33.8273988,12.7835671 33.9556553,12.9759519 33.9556553,13.745491 C33.9556553,14.5150301 33.8273988,14.7715431 33.6991423,14.8997996 C33.6355271,14.9639279 33.5072705,15.0280561 33.122501,15.0280561 L30.2362164,14.9639279 Z M38.381018,21.7938437 L25.5553667,21.7938437 L25.5553667,9 L38.3486974,9 L38.3486974,21.7938437 L38.381018,21.7938437 Z M22.2206974,18.3627255 L22.2206974,19.8376754 L16.128,19.8376754 L16.128,18.3627255 L18.3083607,18.3627255 L18.3083607,12.4629259 L16.128,12.4629259 L16.128,10.987976 L22.2201844,10.987976 L22.2201844,12.4629259 L20.0398236,12.4629259 L20.0398236,18.3627255 L22.2206974,18.3627255 Z M11.9278557,10.987976 L10.260521,10.987976 L9.04208417,17.9779559 L7.63126253,11.501002 C7.56713427,11.0521042 7.3747495,10.987976 6.98997996,10.987976 L6.09218437,10.987976 C5.70741483,10.987976 5.51503006,11.1162325 5.4509018,11.501002 L4.04008016,17.9779559 L2.82164329,10.987976 L1.0260521,10.987976 L2.75751503,19.3887776 C2.82164329,19.7735471 2.9498998,19.8376754 3.3987976,19.8376754 L4.61723447,19.8376754 C5.00200401,19.8376754 5.13026052,19.7735471 5.25851703,19.3887776 L6.60521042,13.2965932 L7.95190381,19.3887776 C8.01603206,19.7735471 8.14428858,19.8376754 8.59318637,19.8376754 L9.74749499,19.8376754 C10.1322645,19.8376754 10.3246493,19.7735471 10.3887776,19.3887776 L11.9278557,10.987976 Z M12.8256513,21.7938437 L3.55271368e-15,21.7938437 L3.55271368e-15,9 L12.7938437,9 L12.7938437,21.7938437 L12.8256513,21.7938437 Z" id="Shape" fill="#000000" fill-rule="nonzero"></path>
    </g>
</svg>