<?xml version="1.0" encoding="UTF-8"?>
<svg width="64px" height="30px" viewBox="0 0 64 30" version="1.1" xmlns="http://www.w3.org/2000/svg" xmlns:xlink="http://www.w3.org/1999/xlink">
    <title>zapier-logo</title>
    <g id="zapier-logo" stroke="none" stroke-width="1" fill="none" fill-rule="evenodd">
        <path d="M35.3947141,13.7233736 L33.9234785,13.7233736 C33.8932581,13.6029643 33.8707109,13.4633132 33.8557188,13.3047744 C33.8257589,12.9962135 33.8257589,12.6854759 33.8557188,12.376915 C33.8707109,12.2187303 33.8932581,12.0791973 33.9234785,11.9580797 L37.5900577,11.9580797 L37.5900577,23.5684811 C37.4065015,23.6004003 37.2214369,23.6229374 37.035585,23.6360047 C36.8509732,23.6501614 36.6659102,23.6576427 36.4807581,23.6584339 C36.3033961,23.6573043 36.1261314,23.6498231 35.9493048,23.6360047 C35.7635231,23.6228408 35.578536,23.6001853 35.3950682,23.568127 L35.3950682,13.7229014 L35.3950682,13.7231375 L35.3947141,13.7233736 Z M48.1589192,16.6431794 C48.1589192,16.2205666 48.102256,15.8170776 47.9894019,15.4320042 C47.8760756,15.047521 47.7096275,14.7119098 47.4914743,14.4250525 C47.2722587,14.1386674 46.9933106,13.9083552 46.6538038,13.7349423 C46.314415,13.5614113 45.9106899,13.4745278 45.4429827,13.4745278 C44.5226784,13.4745278 43.8172219,13.7540661 43.3269675,14.3120803 C42.836595,14.8702125 42.5387592,15.6472062 42.4329879,16.6431794 L48.1590373,16.6431794 L48.1589192,16.6431794 Z M42.4104407,18.3178122 C42.4406611,19.5851784 42.7688353,20.5132739 43.3949633,21.1013903 C44.0208552,21.6897429 44.9451731,21.9843914 46.1673269,21.9843914 C47.2382608,21.9843914 48.2567812,21.7955142 49.2224161,21.4183499 C49.3428253,21.6446485 49.4408054,21.9200551 49.5163562,22.2444517 C49.5904774,22.5602893 49.6359139,22.8821772 49.6521118,23.206191 C49.1545383,23.4179696 48.6071485,23.5756821 48.011595,23.6815714 C47.4152151,23.7868704 46.7552072,23.8399921 46.0314533,23.8399921 C44.9749213,23.8399921 44.0694911,23.6924318 43.3155168,23.3984916 C42.5609523,23.1039612 41.9386018,22.6890215 41.4482293,22.1536726 C40.9579748,21.6182057 40.5994622,20.9844045 40.3731637,20.2525052 C40.1469832,19.5209601 40.0335388,18.7174056 40.0335388,17.8423137 C40.0335388,16.9823321 40.1428515,16.1787775 40.361713,15.4317681 C40.5801023,14.6853489 40.9165399,14.0364376 41.3686647,13.4857424 C41.8214979,12.9348111 42.3909627,12.4974423 43.0775315,12.1730456 C43.7637461,11.848649 44.5746196,11.6862146 45.5105063,11.6862146 C46.3100472,11.6862146 47.0116081,11.8222062 47.6153069,12.0937172 C48.2185336,12.3652282 48.7241343,12.7387329 49.1316369,13.2139953 C49.5389035,13.6893757 49.8481899,14.255181 50.0594963,14.9111752 C50.2705666,15.5677597 50.376574,16.2805352 50.376574,17.0502099 C50.376574,17.2615163 50.3685467,17.4839192 50.3535546,17.7176548 C50.3411665,17.9177398 50.3261337,18.1176524 50.3084601,18.31734 L42.4099685,18.31734 L42.4102046,18.3176941 L42.4104407,18.3178122 Z M52.8447272,11.9580797 C53.0022334,11.9294871 53.1607683,11.9068843 53.3199895,11.89032 C53.470501,11.875564 53.629276,11.8678909 53.7952518,11.8678909 C53.9612277,11.8678909 54.1269675,11.875564 54.2931794,11.89032 C54.4590373,11.9056663 54.610021,11.9283316 54.7458945,11.9580797 C54.7907529,12.1844963 54.8360834,12.4828043 54.8811779,12.8520593 C54.9263903,13.2217865 54.9494098,13.5346144 54.9494098,13.7912513 C55.2661333,13.2784496 55.6848505,12.8330535 56.2052072,12.4557712 C56.7258001,12.0788431 57.3933631,11.8899659 58.2080142,11.8899659 C58.3286595,11.8899659 58.4530824,11.8939795 58.5814008,11.9015346 C58.6911857,11.907437 58.8009706,11.9185336 58.909575,11.9351784 C58.9395593,12.07117 58.9626967,12.2147167 58.9775708,12.3653463 C58.9924449,12.5160939 59,12.6746327 59,12.8404906 C59,13.0216946 58.9887854,13.2104538 58.9662382,13.4061779 C58.9444726,13.5953547 58.9181007,13.7839731 58.8871459,13.9718652 C58.7648873,13.9417639 58.6394327,13.9265825 58.5135231,13.9266527 L58.2077781,13.9266527 C57.8005115,13.9266527 57.4118966,13.9833158 57.0422875,14.096288 C56.6723242,14.2096144 56.3406086,14.4095881 56.0464323,14.6959732 C55.7524921,14.9828305 55.5184024,15.375223 55.3452256,15.8731506 C55.1713405,16.3710782 55.0848111,17.0123164 55.0848111,17.7967471 L55.0848111,23.568127 C54.9012461,23.6 54.7161464,23.6227833 54.5302204,23.6358867 C54.3268232,23.6509969 54.1418416,23.6583158 53.9759837,23.6583158 C53.790909,23.6575811 53.6059226,23.6500998 53.421393,23.6358867 C53.2280743,23.6218283 53.0354688,23.5992592 52.8441369,23.568245 L52.8441369,11.9581978 L52.8447272,11.9580797 Z M36.9608604,5.75865687 C36.9608828,6.02954318 36.9119733,6.29820594 36.8164874,6.55170514 C36.5629034,6.64719416 36.2941698,6.69614205 36.023203,6.69619624 L36.0198977,6.69619624 C35.7489334,6.69623152 35.4801909,6.64732198 35.2266133,6.55182319 C35.1309712,6.29827788 35.0819795,6.02952338 35.0820042,5.75853882 L35.0820042,5.75499738 C35.0820042,5.47581322 35.1332371,5.20843389 35.2260231,4.96171301 C35.4796457,4.86608071 35.7484901,4.81716718 36.0195435,4.81733952 L36.0226128,4.81733952 C36.301915,4.81733952 36.5691763,4.86857293 36.8158972,4.96171301 C36.9114888,5.2152649 36.9604015,5.48402448 36.9602702,5.75499738 L36.9602702,5.75853882 L36.9606243,5.75853882 L36.9608604,5.75865687 Z M39.7262592,5.13064008 L37.5333945,5.13064008 L39.0838405,3.58007608 C38.8400319,3.23767466 38.5407088,2.93843137 38.1982424,2.69471406 L36.6475603,4.24527807 L36.6475603,2.05229538 C36.4413667,2.01761115 36.2326476,2.00011918 36.0235572,2 L36.0195435,2 C35.8068206,2 35.5984654,2.01817943 35.3954224,2.05229538 L35.3954224,4.24527807 L33.8443861,2.69459601 C33.6735741,2.81617075 33.5132541,2.95185042 33.3651102,3.10020986 L33.3644019,3.10091815 C33.2162642,3.24916755 33.0807105,3.40947855 32.9591422,3.58019412 L34.5101784,5.13064008 L32.3168416,5.13064008 C32.3168416,5.13064008 32.2646642,5.54262854 32.2646642,5.75558762 L32.2646642,5.75818468 C32.2646642,5.97114376 32.2827256,6.1798531 32.3169596,6.38301417 L34.5102964,6.38301417 L32.9590241,7.93334208 C33.2030102,8.27569998 33.5023499,8.57499972 33.8447403,8.81894019 L35.3955404,7.26849423 L35.3955404,9.46159496 C35.5983473,9.49559286 35.8063484,9.5135362 36.0188353,9.5137723 L36.0241474,9.5137723 C36.232995,9.51358046 36.4414695,9.49612862 36.6474423,9.46159496 L36.6474423,7.26849423 L38.1983604,8.81929433 C38.3691965,8.69760867 38.5296252,8.56193723 38.6779906,8.41368048 L38.6783447,8.41368048 C38.8264129,8.26527314 38.9619241,8.10484714 39.0834864,7.93405037 L37.5330404,6.38313221 L39.7263772,6.38313221 C39.7603751,6.18008919 39.7783185,5.97208814 39.7783185,5.75960126 L39.7783185,5.75417104 C39.7783185,5.5452256 39.7608473,5.33687041 39.7263772,5.13087618 L39.7263772,5.13064008 L39.7262592,5.13064008 Z M-0.0236621196,23.2517576 L6.08698846,13.7460388 L0.70044596,13.7460388 C0.655351522,13.4745278 0.632804302,13.1730325 0.632804302,12.8409627 C0.632804302,12.5242392 0.655705666,12.2297088 0.700918153,11.9579617 L9.41406086,11.9579617 L9.5273872,12.2527282 L3.37152413,21.7806401 L9.14243179,21.7806401 C9.18764428,22.0824895 9.2104276,22.3915399 9.2104276,22.7082634 C9.2104276,23.0104669 9.18776233,23.2969701 9.14254984,23.5684811 L0.0896642183,23.5684811 L-0.0236621196,23.2514035 L-0.0236621196,23.2517576 Z M17.6063746,18.1139428 C17.3800761,18.0840766 17.0933368,18.0542104 16.746393,18.0236359 C16.3993311,17.9937697 16.1051548,17.9784234 15.8641002,17.9784234 C14.9284496,17.9784234 14.2155561,18.1519544 13.7255378,18.4990163 C13.2348111,18.8463143 12.9900971,19.3741081 12.9900971,20.083224 C12.9900971,20.5358211 13.0727308,20.8904381 13.2388248,21.1468389 C13.4045645,21.403712 13.6122114,21.599436 13.8611752,21.7353095 C14.1102571,21.8710651 14.3853095,21.954171 14.6869229,21.9843914 C14.9885362,22.0144937 15.2753935,22.0294858 15.5469045,22.0294858 C15.8939664,22.0294858 16.2522429,22.0105981 16.6219701,21.9728227 C16.9914612,21.9354014 17.3196354,21.8786201 17.6064927,21.8031873 L17.6064927,18.1139428 L17.6063746,18.1139428 Z M17.6063746,15.9189533 C17.6063746,15.0283972 17.3800761,14.4098242 16.9275971,14.0627623 C16.4747639,13.7157004 15.8185336,13.5421695 14.9585519,13.5421695 C14.4300498,13.5421695 13.9362539,13.5839586 13.4762198,13.6668284 C13.0209784,13.7485345 12.5711614,13.8580123 12.1292891,13.9946485 C11.8424318,13.4967209 11.6995934,12.9011674 11.6995934,12.2066894 C12.2119229,12.0409496 12.7776102,11.9127492 13.3965373,11.8222062 C14.0151102,11.7315451 14.6110178,11.6862146 15.1846144,11.6862146 C16.6932712,11.6862146 17.8398741,12.029735 18.6245409,12.7161857 C19.4088536,13.4032267 19.8014822,14.5007214 19.8014822,16.0092602 L19.8014822,23.2741868 C19.2730981,23.3948321 18.632096,23.519255 17.8777676,23.6475735 C17.1150508,23.7763642 16.3428473,23.8407309 15.5693337,23.8399984 C14.8301154,23.8399984 14.1621983,23.7723505 13.5665268,23.6364769 C12.970383,23.5003673 12.4649003,23.282096 12.0500787,22.9798924 C11.6347849,22.6783972 11.314638,22.2935598 11.0879853,21.8259706 C10.8618048,21.3581453 10.7485965,20.792458 10.7485965,20.1284365 C10.7485965,19.4798793 10.8805745,18.9101784 11.1446485,18.4195698 C11.4041295,17.9348448 11.7720928,17.5166239 12.2198321,17.1975341 C12.6724292,16.8736097 13.192904,16.6318468 13.7813746,16.4736621 C14.3699633,16.3151233 14.9883001,16.2357949 15.6370934,16.2357949 C16.1199108,16.2357949 16.5159627,16.2473636 16.8253673,16.2700289 C17.1344176,16.292458 17.3948321,16.3189008 17.6061385,16.3491212 L17.6061385,15.9190714 L17.6063746,15.9189533 Z M24.4862277,21.6669596 C24.7719397,21.7725042 25.0677519,21.8483758 25.3689927,21.8933762 C25.670724,21.9388248 26.0626443,21.961372 26.5459339,21.961372 C27.0889559,21.961372 27.5866474,21.8748426 28.0392445,21.7013116 C28.4920776,21.5281348 28.8804565,21.2600472 29.2048531,20.8977571 C29.5292497,20.5358211 29.7856506,20.0796826 29.9742917,19.5283972 C30.1628148,18.9780561 30.2573715,18.3257214 30.2573715,17.5709208 C30.2573715,16.3639953 30.0344963,15.4059155 29.5896905,14.6966815 C29.1442943,13.9876836 28.4162907,13.6330666 27.4057975,13.6330666 C27.0286333,13.6330666 26.6662251,13.7008263 26.3197534,13.8368179 C25.9722193,13.9725735 25.6631689,14.1763248 25.3915399,14.4478358 C25.1200289,14.7193468 24.9012854,15.0628673 24.7354276,15.4776889 C24.5689795,15.8929827 24.4863458,16.3866605 24.4863458,16.960139 L24.4863458,21.6673137 L24.4863458,21.6670776 L24.4862277,21.6669596 Z M22.2456716,11.9578437 C22.3991343,11.9276233 22.5537775,11.9050761 22.7096013,11.8900839 C22.8714067,11.8751124 23.0338177,11.867628 23.1963143,11.8676548 C23.3467078,11.8676548 23.5050105,11.875446 23.6713405,11.8900839 C23.8370803,11.9054302 23.995501,11.9282135 24.1466028,11.9579617 C24.1614769,11.9886542 24.1806007,12.0825026 24.203266,12.2410414 C24.2256952,12.3995803 24.2483604,12.5692156 24.2711438,12.7500656 C24.293809,12.9312697 24.3163562,13.1051548 24.3390215,13.2706584 C24.3616868,13.4368704 24.3730194,13.5425236 24.3730194,13.5877361 C24.523531,13.3465635 24.704735,13.1124738 24.9160414,12.8861752 C25.1273478,12.6597587 25.3803253,12.4561254 25.6745016,12.2752754 C25.9686779,12.0940714 26.3003935,11.9508788 26.6702387,11.8451076 C27.0397298,11.7395724 27.4508919,11.6863326 27.903607,11.6863326 C28.5823846,11.6863326 29.2124082,11.799659 29.7935598,12.0260756 C30.3741212,12.2527282 30.8716946,12.6029774 31.2868704,13.0783578 C31.701574,13.5537382 32.0258526,14.157319 32.2599423,14.8888641 C32.4936779,15.6212356 32.6105456,16.4848767 32.6105456,17.4804958 C32.6105456,19.4719701 32.0710651,21.0302072 30.9921039,22.1540268 C29.9131427,23.2782004 28.3859523,23.8399921 26.4094701,23.8399921 C26.0774003,23.8399921 25.7381296,23.8173269 25.3910677,23.7721144 C25.0437697,23.7266658 24.7422744,23.6662251 24.4856375,23.5911464 L24.4856375,28.9096931 C24.2944695,28.9408013 24.1020206,28.9634493 23.9088536,28.9775708 C23.7049843,28.9923269 23.5200026,29 23.3540268,29 C23.169032,28.9992036 22.9841265,28.9917223 22.7996721,28.9775708 C22.6138514,28.9644048 22.4288251,28.9417493 22.2453174,28.9096931 L22.2453174,11.9579617 L22.2456716,11.9578437 Z" id="Shape" fill="#FF4A00" fill-rule="nonzero"></path>
    </g>
</svg>